<svg width="0" height="0" display="none" xmlns="http://www.w3.org/2000/svg">

<symbol id="bookmark" viewBox="0 0 24 24" fill="currentColor" stroke="currentColor" stroke-width="2" stroke-linecap="round" stroke-linejoin="round">
  <path d="M19 21l-7-5-7 5V5a2 2 0 0 1 2-2h10a2 2 0 0 1 2 2z"></path>
</symbol>

<symbol id="clock" viewBox="0 0 24 24" fill="none" stroke-width="2" stroke-linecap="round" stroke-linejoin="round">
  <circle cx="12" cy="12" r="10" fill="currentColor" stroke="currentColor"></circle>
  <polyline points="12 6 12 12 16 14" stroke="#fff"></polyline>
</symbol>

<symbol id="compass" viewBox="0 0 24 24" fill="none" stroke-width="2" stroke-linecap="round" stroke-linejoin="round">
  <circle cx="12" cy="12" r="10" fill="currentColor" stroke="currentColor"></circle>
  <polygon points="16.24 7.76 14.12 14.12 7.76 16.24 9.88 9.88 16.24 7.76" fill="#fff" stroke="#fff"></polygon>
</symbol>

<symbol id="file-plus" viewBox="0 0 24 24" fill="none" stroke="currentColor" stroke-width="2" stroke-linecap="round" stroke-linejoin="round">
  <path d="M14 2H6a2 2 0 0 0-2 2v16a2 2 0 0 0 2 2h12a2 2 0 0 0 2-2V8z"></path>
  <polyline points="14 2 14 8 20 8"></polyline>
  <line x1="12" y1="18" x2="12" y2="12"></line>
  <line x1="9" y1="15" x2="15" y2="15"></line>
</symbol>

<symbol id="file-text" viewBox="0 0 24 24" fill="none" stroke-width="2" stroke-linecap="round" stroke-linejoin="round">
  <path d="M14 2H6a2 2 0 0 0-2 2v16a2 2 0 0 0 2 2h12a2 2 0 0 0 2-2V8z" stroke="currentColor" fill="currentColor"></path>
  <polyline points="14 2 14 8 20 8" stroke="#fff"></polyline>
  <line x1="16" y1="13" x2="8" y2="13" stroke="#fff"></line>
  <line x1="16" y1="17" x2="8" y2="17" stroke="#fff"></line>
  <polyline points="10 9 9 9 8 9" stroke="#fff"></polyline>
</symbol>

<symbol id="folder-minus" viewBox="0 0 24 24" fill="currentColor"  stroke-width="2" stroke-linecap="round" stroke-linejoin="round">
  <path d="M22 19a2 2 0 0 1-2 2H4a2 2 0 0 1-2-2V5a2 2 0 0 1 2-2h5l2 3h9a2 2 0 0 1 2 2z" stroke="currentColor"></path>
  <line x1="9" y1="14" x2="15" y2="14" stroke="#fff"></line>
</symbol>

<symbol id="heart" viewBox="0 0 24 24" fill="currentColor" stroke="currentColor" stroke-width="2" stroke-linecap="round" stroke-linejoin="round">
  <path d="M20.84 4.61a5.5 5.5 0 0 0-7.78 0L12 5.67l-1.06-1.06a5.5 5.5 0 0 0-7.78 7.78l1.06 1.06L12 21.23l7.78-7.78 1.06-1.06a5.5 5.5 0 0 0 0-7.78z"></path>
</symbol>

<symbol id="home" viewBox="0 0 24 24" fill="currentColor">
  <path d="M3 9l9-7 9 7v11a2 2 0 0 1-2 2H5a2 2 0 0 1-2-2z" stroke="currentColor" stroke-width="2" stroke-linecap="round" stroke-linejoin="round"></path>
  <polyline points="9 22 9 12 15 12 15 22" fill="#fff"></polyline>
</symbol>

<symbol id="log-out" viewBox="0 0 24 24" fill="none" stroke="currentColor" stroke-width="2" stroke-linecap="round" stroke-linejoin="round">
  <path d="M9 21H5a2 2 0 0 1-2-2V5a2 2 0 0 1 2-2h4"></path>
  <polyline points="16 17 21 12 16 7"></polyline>
  <line x1="21" y1="12" x2="9" y2="12"></line>
</symbol>

<symbol id="pause" viewBox="0 0 24 24" fill="none" stroke="currentColor" stroke-width="2" stroke-linecap="round" stroke-linejoin="round">
  <rect x="6" y="4" width="4" height="16" fill="currentColor"></rect>
  <rect x="14" y="4" width="4" height="16" fill="currentColor"></rect>
</symbol>

<symbol id="play" viewBox="0 0 24 24" fill="currentColor" stroke="currentColor" stroke-width="2" stroke-linecap="round" stroke-linejoin="round">
  <polygon points="5 3 19 12 5 21 5 3"></polygon>
</symbol>

<symbol id="play-circle" viewBox="0 0 24 24" fill="none">
  <circle cx="12" cy="12" r="10" fill="currentColor" stroke="currentColor" stroke-width="2" stroke-linecap="round" stroke-linejoin="round"></circle>
  <polygon points="10 8 16 12 10 16 10 8" fill="#fff" stroke="#fff" stroke-width="2" stroke-linecap="round" stroke-linejoin="round"></polygon>
</symbol>

<symbol id="plus-square" viewBox="0 0 24 24" fill="currentColor" stroke="#fff" stroke-width="2" stroke-linecap="round" stroke-linejoin="round">
  <rect x="3" y="3" width="18" height="18" rx="2" ry="2" stroke="currentColor"></rect>
  <line x1="12" y1="8" x2="12" y2="16"></line>
  <line x1="8" y1="12" x2="16" y2="12"></line>
</symbol>

<symbol id="repeat" viewBox="0 0 24 24" fill="none" stroke="currentColor" stroke-width="2" stroke-linecap="round" stroke-linejoin="round">
  <polyline points="17 1 21 5 17 9"></polyline>
  <path d="M3 11V9a4 4 0 0 1 4-4h14"></path>
  <polyline points="7 23 3 19 7 15"></polyline>
  <path d="M21 13v2a4 4 0 0 1-4 4H3"></path>
</symbol>

<symbol id="search" viewBox="0 0 24 24" fill="currentColor" stroke="currentColor" stroke-width="2" stroke-linecap="round" stroke-linejoin="round">
  <circle cx="11" cy="11" r="8"></circle>
  <line x1="21" y1="21" x2="16.65" y2="16.65"></line>
</symbol>

<symbol id="settings" viewBox="0 0 24 24" fill="none" stroke="currentColor" stroke-width="2" stroke-linecap="round" stroke-linejoin="round">
  <circle cx="12" cy="12" r="3"></circle>
  <path d="M19.4 15a1.65 1.65 0 0 0 .33 1.82l.06.06a2 2 0 0 1 0 2.83 2 2 0 0 1-2.83 0l-.06-.06a1.65 1.65 0 0 0-1.82-.33 1.65 1.65 0 0 0-1 1.51V21a2 2 0 0 1-2 2 2 2 0 0 1-2-2v-.09A1.65 1.65 0 0 0 9 19.4a1.65 1.65 0 0 0-1.82.33l-.06.06a2 2 0 0 1-2.83 0 2 2 0 0 1 0-2.83l.06-.06a1.65 1.65 0 0 0 .33-1.82 1.65 1.65 0 0 0-1.51-1H3a2 2 0 0 1-2-2 2 2 0 0 1 2-2h.09A1.65 1.65 0 0 0 4.6 9a1.65 1.65 0 0 0-.33-1.82l-.06-.06a2 2 0 0 1 0-2.83 2 2 0 0 1 2.83 0l.06.06a1.65 1.65 0 0 0 1.82.33H9a1.65 1.65 0 0 0 1-1.51V3a2 2 0 0 1 2-2 2 2 0 0 1 2 2v.09a1.65 1.65 0 0 0 1 1.51 1.65 1.65 0 0 0 1.82-.33l.06-.06a2 2 0 0 1 2.83 0 2 2 0 0 1 0 2.83l-.06.06a1.65 1.65 0 0 0-.33 1.82V9a1.65 1.65 0 0 0 1.51 1H21a2 2 0 0 1 2 2 2 2 0 0 1-2 2h-.09a1.65 1.65 0 0 0-1.51 1z"></path>
</symbol>

<symbol id="share" viewBox="0 0 24 24" fill="none" stroke="currentColor" stroke-width="2" stroke-linecap="round" stroke-linejoin="round">
  <path d="M4 12v8a2 2 0 0 0 2 2h12a2 2 0 0 0 2-2v-8"></path>
  <polyline points="16 6 12 2 8 6"></polyline>
  <line x1="12" y1="2" x2="12" y2="15"></line>
</symbol>

<symbol id="shuffle" viewBox="0 0 24 24" fill="none" stroke="currentColor" stroke-width="2" stroke-linecap="round" stroke-linejoin="round">
  <polyline points="16 3 21 3 21 8"></polyline>
  <line x1="4" y1="20" x2="21" y2="3"></line>
  <polyline points="21 16 21 21 16 21"></polyline>
  <line x1="15" y1="15" x2="21" y2="21"></line>
  <line x1="4" y1="4" x2="9" y2="9"></line>
</symbol>

<symbol id="skip-back" viewBox="0 0 24 24" fill="currentColor" stroke="currentColor" stroke-width="2" stroke-linecap="round" stroke-linejoin="round">
  <polygon points="19 20 9 12 19 4 19 20"></polygon>
  <line x1="5" y1="19" x2="5" y2="5"></line>
</symbol>

<symbol id="skip-forward" viewBox="0 0 24 24" fill="currentColor" stroke="currentColor" stroke-width="2" stroke-linecap="round" stroke-linejoin="round">
  <polygon points="5 4 15 12 5 20 5 4"></polygon>
  <line x1="19" y1="5" x2="19" y2="19"></line>
</symbol>

<symbol id="user" viewBox="0 0 24 24" fill="currentColor" stroke="currentColor" stroke-width="2" stroke-linecap="round" stroke-linejoin="round">
  <path d="M20 21v-2a4 4 0 0 0-4-4H8a4 4 0 0 0-4 4v2"></path>
  <circle cx="12" cy="7" r="4"></circle>
</symbol>

</svg>