<svg width="0" height="0" display="none" xmlns="http://www.w3.org/2000/svg">

<symbol id="folder-plus" viewBox="0 0 24 24" fill="none" stroke="currentColor" stroke-width="2" stroke-linecap="round" stroke-linejoin="round">
  <path d="M22 19a2 2 0 0 1-2 2H4a2 2 0 0 1-2-2V5a2 2 0 0 1 2-2h5l2 3h9a2 2 0 0 1 2 2z"></path>
  <line x1="12" y1="11" x2="12" y2="17"></line>
  <line x1="9" y1="14" x2="15" y2="14"></line>
</symbol>

<symbol id="home" viewBox="0 0 24 24" fill="currentColor">
  <path d="M3 9l9-7 9 7v11a2 2 0 0 1-2 2H5a2 2 0 0 1-2-2z" stroke="currentColor" stroke-width="2" stroke-linecap="round" stroke-linejoin="round"></path>
  <polyline points="9 22 9 12 15 12 15 22" fill="#fff"></polyline>
</symbol>

<symbol id="pause" viewBox="0 0 24 24" fill="none" stroke="currentColor" stroke-width="2" stroke-linecap="round" stroke-linejoin="round">
  <rect x="6" y="4" width="4" height="16" fill="currentColor"></rect>
  <rect x="14" y="4" width="4" height="16" fill="currentColor"></rect>
</symbol>

<symbol id="play" viewBox="0 0 24 24" fill="currentColor" stroke="currentColor" stroke-width="2" stroke-linecap="round" stroke-linejoin="round">
  <polygon points="5 3 19 12 5 21 5 3"></polygon>
</symbol>

<symbol id="play-circle" viewBox="0 0 24 24" fill="none">
  <circle cx="12" cy="12" r="10" fill="currentColor" stroke="currentColor" stroke-width="2" stroke-linecap="round" stroke-linejoin="round"></circle>
  <polygon points="10 8 16 12 10 16 10 8" fill="#fff" stroke="#fff" stroke-width="2" stroke-linecap="round" stroke-linejoin="round"></polygon>
</symbol>

<symbol id="plus-square" viewBox="0 0 24 24" fill="currentColor" stroke="#fff" stroke-width="2" stroke-linecap="round" stroke-linejoin="round">
  <rect x="3" y="3" width="18" height="18" rx="2" ry="2" stroke="currentColor"></rect>
  <line x1="12" y1="8" x2="12" y2="16"></line>
  <line x1="8" y1="12" x2="16" y2="12"></line>
</symbol>

<symbol id="repeat" viewBox="0 0 24 24" fill="none" stroke="currentColor" stroke-width="2" stroke-linecap="round" stroke-linejoin="round">
  <polyline points="17 1 21 5 17 9"></polyline>
  <path d="M3 11V9a4 4 0 0 1 4-4h14"></path>
  <polyline points="7 23 3 19 7 15"></polyline>
  <path d="M21 13v2a4 4 0 0 1-4 4H3"></path>
</symbol>

<symbol id="shuffle" viewBox="0 0 24 24" fill="none" stroke="currentColor" stroke-width="2" stroke-linecap="round" stroke-linejoin="round">
  <polyline points="16 3 21 3 21 8"></polyline>
  <line x1="4" y1="20" x2="21" y2="3"></line>
  <polyline points="21 16 21 21 16 21"></polyline>
  <line x1="15" y1="15" x2="21" y2="21"></line>
  <line x1="4" y1="4" x2="9" y2="9"></line>
</symbol>

<symbol id="skip-back" viewBox="0 0 24 24" fill="currentColor" stroke="currentColor" stroke-width="2" stroke-linecap="round" stroke-linejoin="round">
  <polygon points="19 20 9 12 19 4 19 20"></polygon>
  <line x1="5" y1="19" x2="5" y2="5"></line>
</symbol>

<symbol id="skip-forward" viewBox="0 0 24 24" fill="currentColor" stroke="currentColor" stroke-width="2" stroke-linecap="round" stroke-linejoin="round">
  <polygon points="5 4 15 12 5 20 5 4"></polygon>
  <line x1="19" y1="5" x2="19" y2="19"></line>
</symbol>

</svg>