<svg width="0" height="0" display="none" xmlns="http://www.w3.org/2000/svg">

<symbol id="folder-plus" viewBox="0 0 24 24" fill="none" stroke="currentColor" stroke-width="2" stroke-linecap="round" stroke-linejoin="round">
  <path d="M22 19a2 2 0 0 1-2 2H4a2 2 0 0 1-2-2V5a2 2 0 0 1 2-2h5l2 3h9a2 2 0 0 1 2 2z"></path>
  <line x1="12" y1="11" x2="12" y2="17"></line>
  <line x1="9" y1="14" x2="15" y2="14"></line>
</symbol>

<symbol id="pause" viewBox="0 0 24 24" fill="none" stroke="currentColor" stroke-width="2" stroke-linecap="round" stroke-linejoin="round">
  <rect x="6" y="4" width="4" height="16" fill="currentColor"></rect>
  <rect x="14" y="4" width="4" height="16" fill="currentColor"></rect>
</symbol>

<symbol id="play" viewBox="0 0 24 24" fill="currentColor" stroke="currentColor" stroke-width="2" stroke-linecap="round" stroke-linejoin="round">
  <polygon points="5 3 19 12 5 21 5 3"></polygon>
</symbol>

<symbol id="plus-square" viewBox="0 0 24 24" fill="currentColor" stroke="#fff" stroke-width="2" stroke-linecap="round" stroke-linejoin="round">
  <rect x="3" y="3" width="18" height="18" rx="2" ry="2" stroke="currentColor"></rect>
  <line x1="12" y1="8" x2="12" y2="16"></line>
  <line x1="8" y1="12" x2="16" y2="12"></line>
</symbol>

</svg>